<?xml version="1.0" encoding="UTF-8" standalone="no"?>
<!DOCTYPE svg PUBLIC "-//W3C//DTD SVG 1.1//EN"
 "http://www.w3.org/Graphics/SVG/1.1/DTD/svg11.dtd">
<!-- Generated by graphviz version 2.44.1 (20200629.0846)
 -->
<!-- Title: Database Structure Pages: 1 -->
<svg width="1399pt" height="1006pt"
 viewBox="0.00 0.00 1399.43 1005.50" xmlns="http://www.w3.org/2000/svg" xmlns:xlink="http://www.w3.org/1999/xlink">
<g id="graph0" class="graph" transform="scale(1 1) rotate(0) translate(4 1001.5)">
<title>Database Structure</title>
<polygon fill="white" stroke="transparent" points="-4,4 -4,-1001.5 1395.43,-1001.5 1395.43,4 -4,4"/>
<text text-anchor="middle" x="695.71" y="-982.3" font-family="Helvetica,sans-Serif" font-size="14.00">ER Diagram: publications</text>
<!-- authors -->
<g id="node1" class="node">
<title>authors</title>
<polygon fill="#dddddd" stroke="transparent" points="653.43,-949.5 653.43,-970.5 766.43,-970.5 766.43,-949.5 653.43,-949.5"/>
<polygon fill="none" stroke="black" points="653.43,-949.5 653.43,-970.5 766.43,-970.5 766.43,-949.5 653.43,-949.5"/>
<text text-anchor="start" x="689.93" y="-956.3" font-family="Times,serif" font-size="14.00">authors</text>
<polygon fill="none" stroke="black" points="653.43,-928.5 653.43,-949.5 766.43,-949.5 766.43,-928.5 653.43,-928.5"/>
<text text-anchor="start" x="668.43" y="-936.3" font-family="Times,serif" font-size="14.00">au_id:</text>
<text text-anchor="start" x="702.43" y="-936.3" font-family="Helvetica,sans-Serif" font-style="oblique" font-size="10.00">VARCHAR</text>
<polygon fill="none" stroke="black" points="653.43,-907.5 653.43,-928.5 766.43,-928.5 766.43,-907.5 653.43,-907.5"/>
<text text-anchor="start" x="656.43" y="-915.3" font-family="Times,serif" font-size="14.00">au_lname:</text>
<text text-anchor="start" x="714.43" y="-915.3" font-family="Helvetica,sans-Serif" font-style="oblique" font-size="10.00">VARCHAR</text>
<polygon fill="none" stroke="black" points="653.43,-886.5 653.43,-907.5 766.43,-907.5 766.43,-886.5 653.43,-886.5"/>
<text text-anchor="start" x="656.43" y="-894.3" font-family="Times,serif" font-size="14.00">au_fname:</text>
<text text-anchor="start" x="714.43" y="-894.3" font-family="Helvetica,sans-Serif" font-style="oblique" font-size="10.00">VARCHAR</text>
<polygon fill="none" stroke="black" points="653.43,-865.5 653.43,-886.5 766.43,-886.5 766.43,-865.5 653.43,-865.5"/>
<text text-anchor="start" x="676.43" y="-873.3" font-family="Times,serif" font-size="14.00">phone:</text>
<text text-anchor="start" x="713.43" y="-873.3" font-family="Helvetica,sans-Serif" font-style="oblique" font-size="10.00">CHAR</text>
<polygon fill="none" stroke="black" points="653.43,-844.5 653.43,-865.5 766.43,-865.5 766.43,-844.5 653.43,-844.5"/>
<text text-anchor="start" x="662.93" y="-852.3" font-family="Times,serif" font-size="14.00">address:</text>
<text text-anchor="start" x="707.93" y="-852.3" font-family="Helvetica,sans-Serif" font-style="oblique" font-size="10.00">VARCHAR</text>
<polygon fill="none" stroke="black" points="653.43,-823.5 653.43,-844.5 766.43,-844.5 766.43,-823.5 653.43,-823.5"/>
<text text-anchor="start" x="672.93" y="-831.3" font-family="Times,serif" font-size="14.00">city:</text>
<text text-anchor="start" x="697.93" y="-831.3" font-family="Helvetica,sans-Serif" font-style="oblique" font-size="10.00">VARCHAR</text>
<polygon fill="none" stroke="black" points="653.43,-802.5 653.43,-823.5 766.43,-823.5 766.43,-802.5 653.43,-802.5"/>
<text text-anchor="start" x="680.43" y="-810.3" font-family="Times,serif" font-size="14.00">state:</text>
<text text-anchor="start" x="709.43" y="-810.3" font-family="Helvetica,sans-Serif" font-style="oblique" font-size="10.00">CHAR</text>
<polygon fill="none" stroke="black" points="653.43,-781.5 653.43,-802.5 766.43,-802.5 766.43,-781.5 653.43,-781.5"/>
<text text-anchor="start" x="684.43" y="-789.3" font-family="Times,serif" font-size="14.00">zip:</text>
<text text-anchor="start" x="705.43" y="-789.3" font-family="Helvetica,sans-Serif" font-style="oblique" font-size="10.00">CHAR</text>
<polygon fill="none" stroke="black" points="653.43,-760.5 653.43,-781.5 766.43,-781.5 766.43,-760.5 653.43,-760.5"/>
<text text-anchor="start" x="665.93" y="-768.3" font-family="Times,serif" font-size="14.00">contract:</text>
<text text-anchor="start" x="713.93" y="-768.3" font-family="Helvetica,sans-Serif" font-style="oblique" font-size="10.00">TINYINT</text>
</g>
<!-- discounts -->
<g id="node2" class="node">
<title>discounts</title>
<polygon fill="#dddddd" stroke="transparent" points="103.43,-150.5 103.43,-171.5 231.43,-171.5 231.43,-150.5 103.43,-150.5"/>
<polygon fill="none" stroke="black" points="103.43,-150.5 103.43,-171.5 231.43,-171.5 231.43,-150.5 103.43,-150.5"/>
<text text-anchor="start" x="141.43" y="-157.3" font-family="Times,serif" font-size="14.00">discounts</text>
<polygon fill="none" stroke="black" points="103.43,-129.5 103.43,-150.5 231.43,-150.5 231.43,-129.5 103.43,-129.5"/>
<text text-anchor="start" x="106.43" y="-137.3" font-family="Times,serif" font-size="14.00">discounttype:</text>
<text text-anchor="start" x="179.43" y="-137.3" font-family="Helvetica,sans-Serif" font-style="oblique" font-size="10.00">VARCHAR</text>
<polygon fill="none" stroke="black" points="103.43,-108.5 103.43,-129.5 231.43,-129.5 231.43,-108.5 103.43,-108.5"/>
<text text-anchor="start" x="131.43" y="-116.3" font-family="Times,serif" font-size="14.00">stor_id:</text>
<text text-anchor="start" x="173.43" y="-116.3" font-family="Helvetica,sans-Serif" font-style="oblique" font-size="10.00">CHAR</text>
<polygon fill="none" stroke="black" points="103.43,-87.5 103.43,-108.5 231.43,-108.5 231.43,-87.5 103.43,-87.5"/>
<text text-anchor="start" x="121.93" y="-95.3" font-family="Times,serif" font-size="14.00">lowqty:</text>
<text text-anchor="start" x="163.93" y="-95.3" font-family="Helvetica,sans-Serif" font-style="oblique" font-size="10.00">SMALLINT</text>
<polygon fill="none" stroke="black" points="103.43,-66.5 103.43,-87.5 231.43,-87.5 231.43,-66.5 103.43,-66.5"/>
<text text-anchor="start" x="119.93" y="-74.3" font-family="Times,serif" font-size="14.00">highqty:</text>
<text text-anchor="start" x="165.93" y="-74.3" font-family="Helvetica,sans-Serif" font-style="oblique" font-size="10.00">SMALLINT</text>
<polygon fill="none" stroke="black" points="103.43,-45.5 103.43,-66.5 231.43,-66.5 231.43,-45.5 103.43,-45.5"/>
<text text-anchor="start" x="119.43" y="-53.3" font-family="Times,serif" font-size="14.00">discount:</text>
<text text-anchor="start" x="169.43" y="-53.3" font-family="Helvetica,sans-Serif" font-style="oblique" font-size="10.00">DECIMAL</text>
</g>
<!-- stores -->
<g id="node9" class="node">
<title>stores</title>
<polygon fill="#dddddd" stroke="transparent" points="646.43,-129.5 646.43,-150.5 773.43,-150.5 773.43,-129.5 646.43,-129.5"/>
<polygon fill="none" stroke="black" points="646.43,-129.5 646.43,-150.5 773.43,-150.5 773.43,-129.5 646.43,-129.5"/>
<text text-anchor="start" x="693.93" y="-136.3" font-family="Times,serif" font-size="14.00">stores</text>
<polygon fill="none" stroke="black" points="646.43,-108.5 646.43,-129.5 773.43,-129.5 773.43,-108.5 646.43,-108.5"/>
<text text-anchor="start" x="673.93" y="-116.3" font-family="Times,serif" font-size="14.00">stor_id:</text>
<text text-anchor="start" x="715.93" y="-116.3" font-family="Helvetica,sans-Serif" font-style="oblique" font-size="10.00">CHAR</text>
<polygon fill="none" stroke="black" points="646.43,-87.5 646.43,-108.5 773.43,-108.5 773.43,-87.5 646.43,-87.5"/>
<text text-anchor="start" x="654.93" y="-95.3" font-family="Times,serif" font-size="14.00">stor_name:</text>
<text text-anchor="start" x="715.93" y="-95.3" font-family="Helvetica,sans-Serif" font-style="oblique" font-size="10.00">VARCHAR</text>
<polygon fill="none" stroke="black" points="646.43,-66.5 646.43,-87.5 773.43,-87.5 773.43,-66.5 646.43,-66.5"/>
<text text-anchor="start" x="649.43" y="-74.3" font-family="Times,serif" font-size="14.00">stor_address:</text>
<text text-anchor="start" x="721.43" y="-74.3" font-family="Helvetica,sans-Serif" font-style="oblique" font-size="10.00">VARCHAR</text>
<polygon fill="none" stroke="black" points="646.43,-45.5 646.43,-66.5 773.43,-66.5 773.43,-45.5 646.43,-45.5"/>
<text text-anchor="start" x="672.93" y="-53.3" font-family="Times,serif" font-size="14.00">city:</text>
<text text-anchor="start" x="697.93" y="-53.3" font-family="Helvetica,sans-Serif" font-style="oblique" font-size="10.00">VARCHAR</text>
<polygon fill="none" stroke="black" points="646.43,-24.5 646.43,-45.5 773.43,-45.5 773.43,-24.5 646.43,-24.5"/>
<text text-anchor="start" x="680.43" y="-32.3" font-family="Times,serif" font-size="14.00">state:</text>
<text text-anchor="start" x="709.43" y="-32.3" font-family="Helvetica,sans-Serif" font-style="oblique" font-size="10.00">CHAR</text>
<polygon fill="none" stroke="black" points="646.43,-3.5 646.43,-24.5 773.43,-24.5 773.43,-3.5 646.43,-3.5"/>
<text text-anchor="start" x="684.43" y="-11.3" font-family="Times,serif" font-size="14.00">zip:</text>
<text text-anchor="start" x="705.43" y="-11.3" font-family="Helvetica,sans-Serif" font-style="oblique" font-size="10.00">CHAR</text>
</g>
<!-- discounts&#45;&gt;stores -->
<g id="edge1" class="edge">
<title>discounts:stor_id&#45;&gt;stores:stor_id</title>
<path fill="none" stroke="#444444" stroke-dasharray="5,2" d="M232.43,-119.5C412.58,-119.5 460.12,-119.5 635.35,-119.5"/>
<polygon fill="#444444" stroke="#444444" points="645.43,-123 635.43,-119.5 645.43,-116 645.43,-123"/>
</g>
<!-- employee -->
<g id="node3" class="node">
<title>employee</title>
<polygon fill="#dddddd" stroke="transparent" points="653.43,-712.5 653.43,-733.5 765.43,-733.5 765.43,-712.5 653.43,-712.5"/>
<polygon fill="none" stroke="black" points="653.43,-712.5 653.43,-733.5 765.43,-733.5 765.43,-712.5 653.43,-712.5"/>
<text text-anchor="start" x="682.43" y="-719.3" font-family="Times,serif" font-size="14.00">employee</text>
<polygon fill="none" stroke="black" points="653.43,-691.5 653.43,-712.5 765.43,-712.5 765.43,-691.5 653.43,-691.5"/>
<text text-anchor="start" x="671.43" y="-699.3" font-family="Times,serif" font-size="14.00">emp_id:</text>
<text text-anchor="start" x="717.43" y="-699.3" font-family="Helvetica,sans-Serif" font-style="oblique" font-size="10.00">CHAR</text>
<polygon fill="none" stroke="black" points="653.43,-670.5 653.43,-691.5 765.43,-691.5 765.43,-670.5 653.43,-670.5"/>
<text text-anchor="start" x="665.43" y="-678.3" font-family="Times,serif" font-size="14.00">fname:</text>
<text text-anchor="start" x="704.43" y="-678.3" font-family="Helvetica,sans-Serif" font-style="oblique" font-size="10.00">VARCHAR</text>
<polygon fill="none" stroke="black" points="653.43,-649.5 653.43,-670.5 765.43,-670.5 765.43,-649.5 653.43,-649.5"/>
<text text-anchor="start" x="677.43" y="-657.3" font-family="Times,serif" font-size="14.00">minit:</text>
<text text-anchor="start" x="711.43" y="-657.3" font-family="Helvetica,sans-Serif" font-style="oblique" font-size="10.00">CHAR</text>
<polygon fill="none" stroke="black" points="653.43,-628.5 653.43,-649.5 765.43,-649.5 765.43,-628.5 653.43,-628.5"/>
<text text-anchor="start" x="665.93" y="-636.3" font-family="Times,serif" font-size="14.00">lname:</text>
<text text-anchor="start" x="703.93" y="-636.3" font-family="Helvetica,sans-Serif" font-style="oblique" font-size="10.00">VARCHAR</text>
<polygon fill="none" stroke="black" points="653.43,-607.5 653.43,-628.5 765.43,-628.5 765.43,-607.5 653.43,-607.5"/>
<text text-anchor="start" x="665.43" y="-615.3" font-family="Times,serif" font-size="14.00">job_id:</text>
<text text-anchor="start" x="704.43" y="-615.3" font-family="Helvetica,sans-Serif" font-style="oblique" font-size="10.00">SMALLINT</text>
<polygon fill="none" stroke="black" points="653.43,-586.5 653.43,-607.5 765.43,-607.5 765.43,-586.5 653.43,-586.5"/>
<text text-anchor="start" x="663.43" y="-594.3" font-family="Times,serif" font-size="14.00">job_lvl:</text>
<text text-anchor="start" x="706.43" y="-594.3" font-family="Helvetica,sans-Serif" font-style="oblique" font-size="10.00">SMALLINT</text>
<polygon fill="none" stroke="black" points="653.43,-565.5 653.43,-586.5 765.43,-586.5 765.43,-565.5 653.43,-565.5"/>
<text text-anchor="start" x="673.43" y="-573.3" font-family="Times,serif" font-size="14.00">pub_id:</text>
<text text-anchor="start" x="715.43" y="-573.3" font-family="Helvetica,sans-Serif" font-style="oblique" font-size="10.00">CHAR</text>
<polygon fill="none" stroke="black" points="653.43,-544.5 653.43,-565.5 765.43,-565.5 765.43,-544.5 653.43,-544.5"/>
<text text-anchor="start" x="656.43" y="-552.3" font-family="Times,serif" font-size="14.00">hire_date:</text>
<text text-anchor="start" x="711.43" y="-552.3" font-family="Helvetica,sans-Serif" font-style="oblique" font-size="10.00">DATETIME</text>
</g>
<!-- jobs -->
<g id="node4" class="node">
<title>jobs</title>
<polygon fill="#dddddd" stroke="transparent" points="1185.43,-627.5 1185.43,-648.5 1292.43,-648.5 1292.43,-627.5 1185.43,-627.5"/>
<polygon fill="none" stroke="black" points="1185.43,-627.5 1185.43,-648.5 1292.43,-648.5 1292.43,-627.5 1185.43,-627.5"/>
<text text-anchor="start" x="1227.43" y="-634.3" font-family="Times,serif" font-size="14.00">jobs</text>
<polygon fill="none" stroke="black" points="1185.43,-606.5 1185.43,-627.5 1292.43,-627.5 1292.43,-606.5 1185.43,-606.5"/>
<text text-anchor="start" x="1194.93" y="-614.3" font-family="Times,serif" font-size="14.00">job_id:</text>
<text text-anchor="start" x="1233.93" y="-614.3" font-family="Helvetica,sans-Serif" font-style="oblique" font-size="10.00">SMALLINT</text>
<polygon fill="none" stroke="black" points="1185.43,-585.5 1185.43,-606.5 1292.43,-606.5 1292.43,-585.5 1185.43,-585.5"/>
<text text-anchor="start" x="1188.43" y="-593.3" font-family="Times,serif" font-size="14.00">job_desc:</text>
<text text-anchor="start" x="1240.43" y="-593.3" font-family="Helvetica,sans-Serif" font-style="oblique" font-size="10.00">VARCHAR</text>
<polygon fill="none" stroke="black" points="1185.43,-564.5 1185.43,-585.5 1292.43,-585.5 1292.43,-564.5 1185.43,-564.5"/>
<text text-anchor="start" x="1190.93" y="-572.3" font-family="Times,serif" font-size="14.00">min_lvl:</text>
<text text-anchor="start" x="1237.93" y="-572.3" font-family="Helvetica,sans-Serif" font-style="oblique" font-size="10.00">SMALLINT</text>
<polygon fill="none" stroke="black" points="1185.43,-543.5 1185.43,-564.5 1292.43,-564.5 1292.43,-543.5 1185.43,-543.5"/>
<text text-anchor="start" x="1189.93" y="-551.3" font-family="Times,serif" font-size="14.00">max_lvl:</text>
<text text-anchor="start" x="1238.93" y="-551.3" font-family="Helvetica,sans-Serif" font-style="oblique" font-size="10.00">SMALLINT</text>
</g>
<!-- employee&#45;&gt;jobs -->
<g id="edge2" class="edge">
<title>employee:job_id&#45;&gt;jobs:job_id</title>
<path fill="none" stroke="#444444" stroke-dasharray="5,2" d="M766.43,-617.5C948.76,-617.5 996.88,-617.5 1174.23,-617.5"/>
<polygon fill="#444444" stroke="#444444" points="1184.43,-621 1174.43,-617.5 1184.43,-614 1184.43,-621"/>
</g>
<!-- publishers -->
<g id="node6" class="node">
<title>publishers</title>
<polygon fill="#dddddd" stroke="transparent" points="1180.43,-434.5 1180.43,-455.5 1296.43,-455.5 1296.43,-434.5 1180.43,-434.5"/>
<polygon fill="none" stroke="black" points="1180.43,-434.5 1180.43,-455.5 1296.43,-455.5 1296.43,-434.5 1180.43,-434.5"/>
<text text-anchor="start" x="1210.43" y="-441.3" font-family="Times,serif" font-size="14.00">publishers</text>
<polygon fill="none" stroke="black" points="1180.43,-413.5 1180.43,-434.5 1296.43,-434.5 1296.43,-413.5 1180.43,-413.5"/>
<text text-anchor="start" x="1202.43" y="-421.3" font-family="Times,serif" font-size="14.00">pub_id:</text>
<text text-anchor="start" x="1244.43" y="-421.3" font-family="Helvetica,sans-Serif" font-style="oblique" font-size="10.00">CHAR</text>
<polygon fill="none" stroke="black" points="1180.43,-392.5 1180.43,-413.5 1296.43,-413.5 1296.43,-392.5 1180.43,-392.5"/>
<text text-anchor="start" x="1183.43" y="-400.3" font-family="Times,serif" font-size="14.00">pub_name:</text>
<text text-anchor="start" x="1244.43" y="-400.3" font-family="Helvetica,sans-Serif" font-style="oblique" font-size="10.00">VARCHAR</text>
<polygon fill="none" stroke="black" points="1180.43,-371.5 1180.43,-392.5 1296.43,-392.5 1296.43,-371.5 1180.43,-371.5"/>
<text text-anchor="start" x="1201.43" y="-379.3" font-family="Times,serif" font-size="14.00">city:</text>
<text text-anchor="start" x="1226.43" y="-379.3" font-family="Helvetica,sans-Serif" font-style="oblique" font-size="10.00">VARCHAR</text>
<polygon fill="none" stroke="black" points="1180.43,-350.5 1180.43,-371.5 1296.43,-371.5 1296.43,-350.5 1180.43,-350.5"/>
<text text-anchor="start" x="1208.93" y="-358.3" font-family="Times,serif" font-size="14.00">state:</text>
<text text-anchor="start" x="1237.93" y="-358.3" font-family="Helvetica,sans-Serif" font-style="oblique" font-size="10.00">CHAR</text>
<polygon fill="none" stroke="black" points="1180.43,-329.5 1180.43,-350.5 1296.43,-350.5 1296.43,-329.5 1180.43,-329.5"/>
<text text-anchor="start" x="1190.93" y="-337.3" font-family="Times,serif" font-size="14.00">country:</text>
<text text-anchor="start" x="1236.93" y="-337.3" font-family="Helvetica,sans-Serif" font-style="oblique" font-size="10.00">VARCHAR</text>
</g>
<!-- employee&#45;&gt;publishers -->
<g id="edge3" class="edge">
<title>employee:pub_id&#45;&gt;publishers:pub_id</title>
<path fill="none" stroke="#444444" stroke-dasharray="5,2" d="M766.43,-575.5C958.43,-575.5 983.16,-429.76 1169.28,-424.64"/>
<polygon fill="#444444" stroke="#444444" points="1179.48,-428 1169.43,-424.64 1179.38,-421 1179.48,-428"/>
</g>
<!-- pub_info -->
<g id="node5" class="node">
<title>pub_info</title>
<polygon fill="#dddddd" stroke="transparent" points="657.43,-240.5 657.43,-261.5 761.43,-261.5 761.43,-240.5 657.43,-240.5"/>
<polygon fill="none" stroke="black" points="657.43,-240.5 657.43,-261.5 761.43,-261.5 761.43,-240.5 657.43,-240.5"/>
<text text-anchor="start" x="684.93" y="-247.3" font-family="Times,serif" font-size="14.00">pub_info</text>
<polygon fill="none" stroke="black" points="657.43,-219.5 657.43,-240.5 761.43,-240.5 761.43,-219.5 657.43,-219.5"/>
<text text-anchor="start" x="673.43" y="-227.3" font-family="Times,serif" font-size="14.00">pub_id:</text>
<text text-anchor="start" x="715.43" y="-227.3" font-family="Helvetica,sans-Serif" font-style="oblique" font-size="10.00">CHAR</text>
<polygon fill="none" stroke="black" points="657.43,-198.5 657.43,-219.5 761.43,-219.5 761.43,-198.5 657.43,-198.5"/>
<text text-anchor="start" x="667.93" y="-206.3" font-family="Times,serif" font-size="14.00">logo:</text>
<text text-anchor="start" x="695.93" y="-206.3" font-family="Helvetica,sans-Serif" font-style="oblique" font-size="10.00">LONGBLOB</text>
<polygon fill="none" stroke="black" points="657.43,-177.5 657.43,-198.5 761.43,-198.5 761.43,-177.5 657.43,-177.5"/>
<text text-anchor="start" x="660.43" y="-185.3" font-family="Times,serif" font-size="14.00">pr_info:</text>
<text text-anchor="start" x="704.43" y="-185.3" font-family="Helvetica,sans-Serif" font-style="oblique" font-size="10.00">LONGTEXT</text>
</g>
<!-- pub_info&#45;&gt;publishers -->
<g id="edge4" class="edge">
<title>pub_info:pub_id&#45;&gt;publishers:pub_id</title>
<path fill="none" stroke="#444444" stroke-dasharray="5,2" d="M762.43,-230.5C963.44,-230.5 974.69,-418.11 1169.41,-424.34"/>
<polygon fill="#444444" stroke="#444444" points="1179.37,-428 1169.43,-424.34 1179.48,-421 1179.37,-428"/>
</g>
<!-- roysched -->
<g id="node7" class="node">
<title>roysched</title>
<polygon fill="#dddddd" stroke="transparent" points="118.43,-497.5 118.43,-518.5 216.43,-518.5 216.43,-497.5 118.43,-497.5"/>
<polygon fill="none" stroke="black" points="118.43,-497.5 118.43,-518.5 216.43,-518.5 216.43,-497.5 118.43,-497.5"/>
<text text-anchor="start" x="142.93" y="-504.3" font-family="Times,serif" font-size="14.00">roysched</text>
<polygon fill="none" stroke="black" points="118.43,-476.5 118.43,-497.5 216.43,-497.5 216.43,-476.5 118.43,-476.5"/>
<text text-anchor="start" x="121.43" y="-484.3" font-family="Times,serif" font-size="14.00">title_id:</text>
<text text-anchor="start" x="164.43" y="-484.3" font-family="Helvetica,sans-Serif" font-style="oblique" font-size="10.00">VARCHAR</text>
<polygon fill="none" stroke="black" points="118.43,-455.5 118.43,-476.5 216.43,-476.5 216.43,-455.5 118.43,-455.5"/>
<text text-anchor="start" x="136.43" y="-463.3" font-family="Times,serif" font-size="14.00">lorange:</text>
<text text-anchor="start" x="181.43" y="-463.3" font-family="Helvetica,sans-Serif" font-style="oblique" font-size="10.00">INT</text>
<polygon fill="none" stroke="black" points="118.43,-434.5 118.43,-455.5 216.43,-455.5 216.43,-434.5 118.43,-434.5"/>
<text text-anchor="start" x="136.43" y="-442.3" font-family="Times,serif" font-size="14.00">hirange:</text>
<text text-anchor="start" x="181.43" y="-442.3" font-family="Helvetica,sans-Serif" font-style="oblique" font-size="10.00">INT</text>
<polygon fill="none" stroke="black" points="118.43,-413.5 118.43,-434.5 216.43,-434.5 216.43,-413.5 118.43,-413.5"/>
<text text-anchor="start" x="137.43" y="-421.3" font-family="Times,serif" font-size="14.00">royalty:</text>
<text text-anchor="start" x="180.43" y="-421.3" font-family="Helvetica,sans-Serif" font-style="oblique" font-size="10.00">INT</text>
</g>
<!-- titles -->
<g id="node11" class="node">
<title>titles</title>
<polygon fill="#dddddd" stroke="transparent" points="657.43,-497.5 657.43,-518.5 761.43,-518.5 761.43,-497.5 657.43,-497.5"/>
<polygon fill="none" stroke="black" points="657.43,-497.5 657.43,-518.5 761.43,-518.5 761.43,-497.5 657.43,-497.5"/>
<text text-anchor="start" x="695.93" y="-504.3" font-family="Times,serif" font-size="14.00">titles</text>
<polygon fill="none" stroke="black" points="657.43,-476.5 657.43,-497.5 761.43,-497.5 761.43,-476.5 657.43,-476.5"/>
<text text-anchor="start" x="663.43" y="-484.3" font-family="Times,serif" font-size="14.00">title_id:</text>
<text text-anchor="start" x="706.43" y="-484.3" font-family="Helvetica,sans-Serif" font-style="oblique" font-size="10.00">VARCHAR</text>
<polygon fill="none" stroke="black" points="657.43,-455.5 657.43,-476.5 761.43,-476.5 761.43,-455.5 657.43,-455.5"/>
<text text-anchor="start" x="672.43" y="-463.3" font-family="Times,serif" font-size="14.00">title:</text>
<text text-anchor="start" x="697.43" y="-463.3" font-family="Helvetica,sans-Serif" font-style="oblique" font-size="10.00">VARCHAR</text>
<polygon fill="none" stroke="black" points="657.43,-434.5 657.43,-455.5 761.43,-455.5 761.43,-434.5 657.43,-434.5"/>
<text text-anchor="start" x="680.43" y="-442.3" font-family="Times,serif" font-size="14.00">type:</text>
<text text-anchor="start" x="708.43" y="-442.3" font-family="Helvetica,sans-Serif" font-style="oblique" font-size="10.00">CHAR</text>
<polygon fill="none" stroke="black" points="657.43,-413.5 657.43,-434.5 761.43,-434.5 761.43,-413.5 657.43,-413.5"/>
<text text-anchor="start" x="673.43" y="-421.3" font-family="Times,serif" font-size="14.00">pub_id:</text>
<text text-anchor="start" x="715.43" y="-421.3" font-family="Helvetica,sans-Serif" font-style="oblique" font-size="10.00">CHAR</text>
<polygon fill="none" stroke="black" points="657.43,-392.5 657.43,-413.5 761.43,-413.5 761.43,-392.5 657.43,-392.5"/>
<text text-anchor="start" x="670.93" y="-400.3" font-family="Times,serif" font-size="14.00">price:</text>
<text text-anchor="start" x="701.93" y="-400.3" font-family="Helvetica,sans-Serif" font-style="oblique" font-size="10.00">DECIMAL</text>
<polygon fill="none" stroke="black" points="657.43,-371.5 657.43,-392.5 761.43,-392.5 761.43,-371.5 657.43,-371.5"/>
<text text-anchor="start" x="661.93" y="-379.3" font-family="Times,serif" font-size="14.00">advance:</text>
<text text-anchor="start" x="710.93" y="-379.3" font-family="Helvetica,sans-Serif" font-style="oblique" font-size="10.00">DECIMAL</text>
<polygon fill="none" stroke="black" points="657.43,-350.5 657.43,-371.5 761.43,-371.5 761.43,-350.5 657.43,-350.5"/>
<text text-anchor="start" x="679.43" y="-358.3" font-family="Times,serif" font-size="14.00">royalty:</text>
<text text-anchor="start" x="722.43" y="-358.3" font-family="Helvetica,sans-Serif" font-style="oblique" font-size="10.00">INT</text>
<polygon fill="none" stroke="black" points="657.43,-329.5 657.43,-350.5 761.43,-350.5 761.43,-329.5 657.43,-329.5"/>
<text text-anchor="start" x="673.43" y="-337.3" font-family="Times,serif" font-size="14.00">ytd_sales:</text>
<text text-anchor="start" x="728.43" y="-337.3" font-family="Helvetica,sans-Serif" font-style="oblique" font-size="10.00">INT</text>
<polygon fill="none" stroke="black" points="657.43,-308.5 657.43,-329.5 761.43,-329.5 761.43,-308.5 657.43,-308.5"/>
<text text-anchor="start" x="668.43" y="-316.3" font-family="Times,serif" font-size="14.00">notes:</text>
<text text-anchor="start" x="701.43" y="-316.3" font-family="Helvetica,sans-Serif" font-style="oblique" font-size="10.00">VARCHAR</text>
<polygon fill="none" stroke="black" points="657.43,-287.5 657.43,-308.5 761.43,-308.5 761.43,-287.5 657.43,-287.5"/>
<text text-anchor="start" x="660.43" y="-295.3" font-family="Times,serif" font-size="14.00">pubdate:</text>
<text text-anchor="start" x="707.43" y="-295.3" font-family="Helvetica,sans-Serif" font-style="oblique" font-size="10.00">DATETIME</text>
</g>
<!-- roysched&#45;&gt;titles -->
<g id="edge5" class="edge">
<title>roysched:title_id&#45;&gt;titles:title_id</title>
<path fill="none" stroke="#444444" stroke-dasharray="5,2" d="M217.43,-487.5C409.11,-487.5 459.56,-487.5 646.27,-487.5"/>
<polygon fill="#444444" stroke="#444444" points="656.43,-491 646.43,-487.5 656.43,-484 656.43,-491"/>
</g>
<!-- sales -->
<g id="node8" class="node">
<title>sales</title>
<polygon fill="#dddddd" stroke="transparent" points="112.43,-345.5 112.43,-366.5 222.43,-366.5 222.43,-345.5 112.43,-345.5"/>
<polygon fill="none" stroke="black" points="112.43,-345.5 112.43,-366.5 222.43,-366.5 222.43,-345.5 112.43,-345.5"/>
<text text-anchor="start" x="153.93" y="-352.3" font-family="Times,serif" font-size="14.00">sales</text>
<polygon fill="none" stroke="black" points="112.43,-324.5 112.43,-345.5 222.43,-345.5 222.43,-324.5 112.43,-324.5"/>
<text text-anchor="start" x="131.43" y="-332.3" font-family="Times,serif" font-size="14.00">stor_id:</text>
<text text-anchor="start" x="173.43" y="-332.3" font-family="Helvetica,sans-Serif" font-style="oblique" font-size="10.00">CHAR</text>
<polygon fill="none" stroke="black" points="112.43,-303.5 112.43,-324.5 222.43,-324.5 222.43,-303.5 112.43,-303.5"/>
<text text-anchor="start" x="115.93" y="-311.3" font-family="Times,serif" font-size="14.00">ord_num:</text>
<text text-anchor="start" x="169.93" y="-311.3" font-family="Helvetica,sans-Serif" font-style="oblique" font-size="10.00">VARCHAR</text>
<polygon fill="none" stroke="black" points="112.43,-282.5 112.43,-303.5 222.43,-303.5 222.43,-282.5 112.43,-282.5"/>
<text text-anchor="start" x="115.93" y="-290.3" font-family="Times,serif" font-size="14.00">ord_date:</text>
<text text-anchor="start" x="167.93" y="-290.3" font-family="Helvetica,sans-Serif" font-style="oblique" font-size="10.00">DATETIME</text>
<polygon fill="none" stroke="black" points="112.43,-261.5 112.43,-282.5 222.43,-282.5 222.43,-261.5 112.43,-261.5"/>
<text text-anchor="start" x="131.93" y="-269.3" font-family="Times,serif" font-size="14.00">qty:</text>
<text text-anchor="start" x="153.93" y="-269.3" font-family="Helvetica,sans-Serif" font-style="oblique" font-size="10.00">SMALLINT</text>
<polygon fill="none" stroke="black" points="112.43,-240.5 112.43,-261.5 222.43,-261.5 222.43,-240.5 112.43,-240.5"/>
<text text-anchor="start" x="115.43" y="-248.3" font-family="Times,serif" font-size="14.00">payterms:</text>
<text text-anchor="start" x="170.43" y="-248.3" font-family="Helvetica,sans-Serif" font-style="oblique" font-size="10.00">VARCHAR</text>
<polygon fill="none" stroke="black" points="112.43,-219.5 112.43,-240.5 222.43,-240.5 222.43,-219.5 112.43,-219.5"/>
<text text-anchor="start" x="121.43" y="-227.3" font-family="Times,serif" font-size="14.00">title_id:</text>
<text text-anchor="start" x="164.43" y="-227.3" font-family="Helvetica,sans-Serif" font-style="oblique" font-size="10.00">VARCHAR</text>
</g>
<!-- sales&#45;&gt;stores -->
<g id="edge6" class="edge">
<title>sales:stor_id&#45;&gt;stores:stor_id</title>
<path fill="none" stroke="#444444" stroke-dasharray="5,2" d="M223.43,-335.5C430.73,-335.5 434.66,-126.4 635.41,-119.67"/>
<polygon fill="#444444" stroke="#444444" points="645.49,-123 635.43,-119.67 645.37,-116 645.49,-123"/>
</g>
<!-- sales&#45;&gt;titles -->
<g id="edge7" class="edge">
<title>sales:title_id&#45;&gt;titles:title_id</title>
<path fill="none" stroke="#444444" stroke-dasharray="5,2" d="M223.43,-229.5C444.05,-229.5 432.81,-479.75 646.42,-487.32"/>
<polygon fill="#444444" stroke="#444444" points="656.37,-491 646.43,-487.32 656.49,-484 656.37,-491"/>
</g>
<!-- titleauthor -->
<g id="node10" class="node">
<title>titleauthor</title>
<polygon fill="#dddddd" stroke="transparent" points="118.43,-788.5 118.43,-809.5 216.43,-809.5 216.43,-788.5 118.43,-788.5"/>
<polygon fill="none" stroke="black" points="118.43,-788.5 118.43,-809.5 216.43,-809.5 216.43,-788.5 118.43,-788.5"/>
<text text-anchor="start" x="139.43" y="-795.3" font-family="Times,serif" font-size="14.00">titleauthor</text>
<polygon fill="none" stroke="black" points="118.43,-767.5 118.43,-788.5 216.43,-788.5 216.43,-767.5 118.43,-767.5"/>
<text text-anchor="start" x="125.93" y="-775.3" font-family="Times,serif" font-size="14.00">au_id:</text>
<text text-anchor="start" x="159.93" y="-775.3" font-family="Helvetica,sans-Serif" font-style="oblique" font-size="10.00">VARCHAR</text>
<polygon fill="none" stroke="black" points="118.43,-746.5 118.43,-767.5 216.43,-767.5 216.43,-746.5 118.43,-746.5"/>
<text text-anchor="start" x="121.43" y="-754.3" font-family="Times,serif" font-size="14.00">title_id:</text>
<text text-anchor="start" x="164.43" y="-754.3" font-family="Helvetica,sans-Serif" font-style="oblique" font-size="10.00">VARCHAR</text>
<polygon fill="none" stroke="black" points="118.43,-725.5 118.43,-746.5 216.43,-746.5 216.43,-725.5 118.43,-725.5"/>
<text text-anchor="start" x="126.43" y="-733.3" font-family="Times,serif" font-size="14.00">au_ord:</text>
<text text-anchor="start" x="168.43" y="-733.3" font-family="Helvetica,sans-Serif" font-style="oblique" font-size="10.00">TINYINT</text>
<polygon fill="none" stroke="black" points="118.43,-704.5 118.43,-725.5 216.43,-725.5 216.43,-704.5 118.43,-704.5"/>
<text text-anchor="start" x="128.93" y="-712.3" font-family="Times,serif" font-size="14.00">royaltyper:</text>
<text text-anchor="start" x="188.93" y="-712.3" font-family="Helvetica,sans-Serif" font-style="oblique" font-size="10.00">INT</text>
</g>
<!-- titleauthor&#45;&gt;authors -->
<g id="edge9" class="edge">
<title>titleauthor:au_id&#45;&gt;authors:au_id</title>
<path fill="none" stroke="#444444" stroke-dasharray="5,2" d="M217.43,-778.5C420.16,-778.5 445.47,-934.2 642.31,-939.37"/>
<polygon fill="#444444" stroke="#444444" points="652.38,-943 642.43,-939.37 652.47,-936 652.38,-943"/>
</g>
<!-- titleauthor&#45;&gt;titles -->
<g id="edge8" class="edge">
<title>titleauthor:title_id&#45;&gt;titles:title_id</title>
<path fill="none" stroke="#444444" stroke-dasharray="5,2" d="M217.43,-756.5C442.79,-756.5 428.11,-495.58 646.21,-487.68"/>
<polygon fill="#444444" stroke="#444444" points="656.49,-491 646.43,-487.68 656.37,-484 656.49,-491"/>
</g>
<!-- titles&#45;&gt;publishers -->
<g id="edge10" class="edge">
<title>titles:pub_id&#45;&gt;publishers:pub_id</title>
<path fill="none" stroke="#444444" stroke-dasharray="5,2" d="M762.43,-424.5C944.32,-424.5 992.33,-424.5 1169.25,-424.5"/>
<polygon fill="#444444" stroke="#444444" points="1179.43,-428 1169.43,-424.5 1179.43,-421 1179.43,-428"/>
</g>
</g>
</svg>
